<?xml version="1.0" encoding="UTF-8"?>
<svg id="Layer_2" data-name="Layer 2" xmlns="http://www.w3.org/2000/svg" viewBox="0 0 964.22 720.81">
  <defs>
    <style>
      .cls-1 {
        fill: #231f20;
      }
    </style>
  </defs>
  <g id="Layer_1-2" data-name="Layer 1">
    <g id="Couple_Ring" data-name="Couple Ring">
      <polygon class="cls-1" points="698.17 300.6 912.32 287.67 864.65 239.99 698.17 300.6"/>
      <polygon class="cls-1" points="690.5 65.84 679.59 282.01 739.79 115.13 690.5 65.84"/>
      <polygon class="cls-1" points="691.3 281.61 798.78 174.13 747.87 123.21 691.3 281.61"/>
      <polygon class="cls-1" points="806.06 181.4 698.58 288.88 856.97 232.31 806.06 181.4"/>
      <polygon class="cls-1" points="743.83 103.42 765.45 40.99 698.37 57.96 743.83 103.42"/>
      <polygon class="cls-1" points="815.55 91.09 773.93 49.47 753.73 105.23 815.55 91.09"/>
      <polygon class="cls-1" points="804.84 164.43 818.58 100.59 755.75 115.34 804.84 164.43"/>
      <polygon class="cls-1" points="814.06 165.57 874.34 149.88 829.29 104.83 814.06 165.57"/>
      <polygon class="cls-1" points="930.51 206.05 889.29 164.83 874.75 226.25 930.51 206.05"/>
      <polygon class="cls-1" points="864.85 224.43 878.99 160.99 815.96 175.54 864.85 224.43"/>
      <polygon class="cls-1" points="876.97 236.55 921.01 280.6 938.39 213.93 876.97 236.55"/>
      <path class="cls-1" d="M661.59,267.89l1.87-46.66.87-19.32c-19.29,5.9-42.67-.78-43.39-.99l.12.07c-29.63-11.06-61.32-16.83-93.9-16.83-40.62,0-79.86,8.96-115.47,25.95,13.47,7.96,26.33,17.1,38.44,27.37,69.87-24.98,149.49-14.84,211.46,30.41Z"/>
      <path class="cls-1" d="M778.82,358.81c-.21-.73-6.89-24.1-.98-43.4l-19.33.87.2.41c-.08-.13-.16-.28-.24-.41l-46.6,1.95c65.07,89.3,57.31,215.12-23.27,295.71-65.07,65.07-159.66,82.65-240.68,52.74-20.13-7.43-39.43-17.8-57.22-31.1-8.72-6.51-17.08-13.73-25-21.65-89.16-89.17-89.17-233.73-.01-322.9,8.49-8.49,17.48-16.17,26.89-23.05-12.02-8.1-24.88-15.04-38.41-20.66-5.77,4.87-11.36,10.02-16.76,15.42-50.68,50.68-78.58,118.07-78.58,189.74s27.91,139.06,78.59,189.73c4.74,4.74,9.64,9.29,14.66,13.63,17.53,15.14,36.71,27.8,57.12,37.8,36.27,17.78,76.39,27.17,117.96,27.17,71.67,0,139.05-27.91,189.73-78.59,50.68-50.68,78.59-118.06,78.59-189.74,0-32.78-5.84-64.65-17.03-94.45l.37.78Z"/>
      <path class="cls-1" d="M925.81,187.72c17.88-15.05,34.42.73,34.42.73-15.05-17.88.28-35.43.28-35.43,0,0-17.55,15.33-35.43.28,0,0,15.78,16.54.73,34.42Z"/>
      <path class="cls-1" d="M854.82,310.02s15.78,16.54.73,34.42c17.88-15.05,34.42.73,34.42.73-15.05-17.88.28-35.43.28-35.43,0,0-17.55,15.33-35.43.28Z"/>
      <path class="cls-1" d="M821.56,72.56c17.88-15.05,34.42.73,34.42.73-15.05-17.88.28-35.43.28-35.43,0,0-17.55,15.33-35.43.28,0,0,15.78,16.54.73,34.42Z"/>
      <path class="cls-1" d="M686.48,34.7c17.88-15.05,34.42.73,34.42.73-15.05-17.88.28-35.43.28-35.43,0,0-17.55,15.33-35.43.28,0,0,15.78,16.54.73,34.42Z"/>
      <path class="cls-1" d="M964.22,289.11s-17.55,15.33-35.43.28c0,0,15.78,16.54.73,34.42,17.88-15.05,34.42.73,34.42.73-15.05-17.88.28-35.43.28-35.43Z"/>
      <path class="cls-1" d="M624.63,166.86c17.88-15.05,34.42.73,34.42.73-15.05-17.88.28-35.43.28-35.43,0,0-17.55,15.33-35.43.28,0,0,15.78,16.54.73,34.42Z"/>
      <path class="cls-1" d="M269.67,681.81c-127.4,0-230.67-103.27-230.67-230.66s103.27-230.66,230.67-230.66,230.66,103.27,230.66,230.66c0,75.41-36.19,142.36-92.14,184.44,11.92,7.78,24.57,14.35,37.78,19.62,4.93-4.26,9.72-8.73,14.38-13.38,50.93-50.93,78.98-118.65,78.98-190.68s-28.05-139.75-78.98-190.68c-50.94-50.93-118.66-78.98-190.68-78.98s-139.75,28.05-190.69,78.98C28.05,311.4,0,379.12,0,451.15s28.05,139.75,78.98,190.68c50.94,50.93,118.66,78.98,190.69,78.98,41.68,0,81.92-9.4,118.3-27.19-13.24-7.65-25.87-16.44-37.75-26.27-25.07,9.35-52.21,14.46-80.55,14.46Z"/>
    </g>
  </g>
</svg>