<?xml version="1.0" encoding="UTF-8"?>
<svg id="Layer_2" xmlns="http://www.w3.org/2000/svg" version="1.1" viewBox="0 0 964.2 720.8">
  <!-- Generator: Adobe Illustrator 29.1.0, SVG Export Plug-In . SVG Version: 2.1.0 Build 142)  -->
  <defs>
    <style>
      .st0 {
        fill: #0a0a09;
      }

      .st1 {
        isolation: isolate;
      }
    </style>
  </defs>
  <polygon class="st0" points="266 300.6 51.9 287.7 99.5 240 266 300.6"/>
  <polygon class="st0" points="273.7 65.8 284.6 282 224.4 115.1 273.7 65.8"/>
  <polygon class="st0" points="272.9 281.6 165.4 174.1 216.3 123.2 272.9 281.6"/>
  <polygon class="st0" points="158.1 181.4 265.6 288.9 107.2 232.3 158.1 181.4"/>
  <polygon class="st0" points="220.4 103.4 198.7 41 265.8 58 220.4 103.4"/>
  <polygon class="st0" points="148.7 91.1 190.3 49.5 210.5 105.2 148.7 91.1"/>
  <polygon class="st0" points="159.4 164.4 145.6 100.6 208.4 115.3 159.4 164.4"/>
  <polygon class="st0" points="150.1 165.6 89.9 149.9 134.9 104.8 150.1 165.6"/>
  <polygon class="st0" points="33.7 206.1 74.9 164.8 89.4 226.2 33.7 206.1"/>
  <polygon class="st0" points="99.4 224.4 85.2 161 148.2 175.5 99.4 224.4"/>
  <polygon class="st0" points="87.2 236.6 43.2 280.6 25.8 213.9 87.2 236.6"/>
  <path class="st0" d="M302.6,267.9l-1.9-46.7-.9-19.3c19.3,5.9,42.7-.8,43.4-1h0c29.6-11,61.3-16.8,93.9-16.8s79.9,9,115.5,25.9c-13.5,8-26.3,17.1-38.4,27.4-69.9-25-149.5-14.8-211.5,30.4h0Z"/>
  <path class="st0" d="M185.4,358.8c.2-.7,6.9-24.1,1-43.4l19.3.9-.2.4c0-.1.2-.3.2-.4l46.6,2c-65.1,89.3-57.3,215.1,23.3,295.7,80.6,80.6,159.7,82.7,240.7,52.7,20.1-7.4,39.4-17.8,57.2-31.1,8.7-6.5,17.1-13.7,25-21.7,89.2-89.2,89.2-233.7,0-322.9-8.5-8.5-17.5-16.2-26.9-23,12-8.1,24.9-15,38.4-20.7,5.8,4.9,11.4,10,16.8,15.4,50.7,50.7,78.6,118.1,78.6,189.7s-27.9,139.1-78.6,189.7c-4.7,4.7-9.6,9.3-14.7,13.6-17.5,15.1-36.7,27.8-57.1,37.8-36.3,17.8-76.4,27.2-118,27.2-71.7,0-139-27.9-189.7-78.6-50.7-50.7-78.6-118.1-78.6-189.7s5.8-64.6,17-94.5l-.4.8h.1,0Z"/>
  <path class="st0" d="M38.4,187.7c-17.9-15.1-34.4.7-34.4.7,15-17.9-.3-35.4-.3-35.4,0,0,17.5,15.3,35.4.3,0,0-15.8,16.5-.7,34.4h0Z"/>
  <path class="st0" d="M109.4,310s-15.8,16.5-.7,34.4c-17.9-15-34.4.7-34.4.7,15-17.9-.3-35.4-.3-35.4,0,0,17.5,15.3,35.4.3h0Z"/>
  <path class="st0" d="M142.6,72.6c-17.9-15-34.4.7-34.4.7,15-17.9-.3-35.4-.3-35.4,0,0,17.5,15.3,35.4.3,0,0-15.8,16.5-.7,34.4Z"/>
  <path class="st0" d="M277.7,34.7c-17.9-15-34.4.7-34.4.7,15-17.9-.3-35.4-.3-35.4,0,0,17.5,15.3,35.4.3,0,0-15.8,16.5-.7,34.4Z"/>
  <path class="st0" d="M0,289.1s17.5,15.3,35.4.3c0,0-15.8,16.5-.7,34.4-17.9-15-34.4.7-34.4.7C15.3,306.6,0,289.1,0,289.1h0Z"/>
  <path class="st0" d="M339.6,166.9c-17.9-15.1-34.4.7-34.4.7,15-17.9-.3-35.4-.3-35.4,0,0,17.5,15.3,35.4.3,0,0-15.8,16.5-.7,34.4Z"/>
  <path class="st0" d="M694.5,681.8c127.4,0,230.7-103.3,230.7-230.7s-103.3-230.7-230.7-230.7-230.7,103.3-230.7,230.7,36.2,142.4,92.1,184.4c-11.9,7.8-24.6,14.3-37.8,19.6-4.9-4.3-9.7-8.7-14.4-13.4-50.9-50.9-79-118.7-79-190.7s28-139.8,79-190.7c50.9-50.9,118.7-79,190.7-79s139.8,28.1,190.7,79c51.1,51.1,79.1,118.8,79.1,190.8s-28,139.8-79,190.7c-50.9,50.9-118.7,79-190.7,79s-81.9-9.4-118.3-27.2c13.2-7.7,25.9-16.4,37.8-26.3,25.1,9.3,52.2,14.5,80.5,14.5h0Z"/>
  <g class="st1">
    <g class="st1">
      <path d="M751.6,504.4v-1.7c3.1,0,5.9-.5,8.2-1.6,2.3-1.1,4.3-2.5,6.1-4.2,1.7-1.7,3.3-3.8,4.6-6.2,1.3-2.4,2.5-4.8,3.6-7.4l38.6-91.9h3.2l39.6,94.6c2.1,5.2,4.5,9.2,7.1,12.2,2.6,3,6.3,4.5,11.3,4.5v1.7h-23.4l-15.7-37.4c-6.4,0-12.8.3-19.2.8-6.4.6-12.4,1.8-18.1,3.6-5.7,1.9-10.8,4.5-15.3,8-4.5,3.5-8,8.2-10.6,14l-4.6,11h-15.3ZM834,465.3l-25.3-60.5-32.9,78.4c5.6-6.5,13.1-11.1,22.3-13.8,9.3-2.7,21.2-4,35.8-4Z"/>
    </g>
  </g>
  <g class="st1">
    <g class="st1">
      <path d="M277.5,503.3v-1.6c2.7,0,5.1-.5,7-1.4,1.9-.9,3.5-2.2,4.8-3.8,1.3-1.6,2.2-3.5,2.7-5.6.5-2.1.8-4.4.8-6.8v-72.5c0-4.8-1.2-8.7-3.5-11.7-2.4-3-6.3-4.5-11.7-4.5v-1.6h42.1v1.6c-5.5,0-9.4,1.5-11.8,4.5-2.4,3-3.6,6.9-3.6,11.7v37l51.9-54.9h20.2v1.6c-6,0-12,1.3-17.9,3.9-5.9,2.6-10.7,5.8-14.5,9.8l-37.5,39.6c8.8,0,16.1,1,21.9,3,5.9,2,10.7,4.5,14.5,7.6,3.8,3.1,7,6.5,9.4,10.3,2.4,3.8,4.6,7.5,6.6,11.3,1.5,2.7,3.1,5.4,4.6,8,1.5,2.6,3.3,4.8,5.3,6.7,2,1.9,4.4,3.5,7.1,4.6,2.7,1.2,5.9,1.7,9.6,1.7v1.6h-27.8c-2.5-3.3-4.7-6.7-6.5-10.1-1.8-3.5-3.5-6.9-5.2-10.3-2-4.2-4-8.1-6.2-11.9-2.1-3.8-4.7-7.1-7.8-10.1-3.1-3-6.8-5.4-11.3-7.3-4.4-1.9-10-3-16.7-3.4v33.8c0,4.8,1.2,9,3.7,12.4,2.5,3.5,6.4,5.2,11.7,5.2v1.6h-42.1Z"/>
    </g>
  </g>
  <path d="M564.6,440.2c.4,0,.4-.4.6-.7.8-1.7,1.5-3.4,2.4-5.1,2.7-5,6.7-8.8,11.7-11.4,2.4-1.2,4.9-2,7.7-2,4.7,0,8.3,2.6,9.7,7.1,1.2,3.8,1.1,7.6.2,11.4-1.1,4.6-2.9,9-5.6,12.9-2.2,3.1-4.3,6.2-6.7,9.2-4.9,6.3-9.8,12.7-14.4,19.2-.5.8-1.2,1.4-1.8,2.1-.4.5-.7,1-1,1.5-.8,1.2-1.5,1.3-2.5.2-.5-.5-.9-1-1.3-1.5-5.6-7.8-11.9-14.9-18.3-21.9-3.6-4-6.8-8.2-9.9-12.6-2.5-3.6-3.9-7.7-4.6-12-.2-1.7,0-3.3.2-5,.7-4.1,2.3-7.9,5-11.2,1.7-2,3.8-3.2,6.5-3.6,1.5-.2,2.9,0,4.3.4,2,.6,3.8,1.6,5.5,2.9,2.8,2.2,5.1,4.9,6.8,8,2,3.8,4.1,7.7,5.2,11.9,0,0,.2.2.3.2h0Z"/>
</svg>